<svg width="103" height="106" viewBox="0 0 103 106" fill="none" xmlns="http://www.w3.org/2000/svg">
    <path d="M43.7656 94.5362V84.7467V71.3005C43.7656 68.4687 41.7857 66.0225 39.0162 65.4323L12.4006 59.7601C10.9623 59.4536 9.93414 58.1832 9.93414 56.7126C9.93414 55.5379 10.5947 54.4631 11.6427 53.9326L97.101 10.6693C98.1152 10.1559 99.4816 9.9861 100.51 10.4696C101.677 11.0179 102 12.2649 102 13.554V83.135C102 84.1907 101.756 85.2509 101.158 86.1207C101.007 86.3396 100.855 86.5403 100.694 86.7253C99.6585 87.9121 97.8776 87.7194 96.4368 87.0834C89.2936 83.9305 67.4321 74.3909 66.5047 75.3182C65.5905 76.2325 53.7497 91.0875 49.6153 96.2815C48.6999 97.4316 47.3652 98.4852 45.9373 98.1361C45.3451 97.9913 44.8544 97.6438 44.3936 96.9788C43.9047 96.2731 43.7656 95.3947 43.7656 94.5362Z" fill="#9C3FF2" stroke="#9C3FF2"/>
    <path d="M35.191 28.7827L30.3059 31.1031C28.6439 31.8925 28.0917 33.9875 29.1486 35.4936C29.9985 36.7046 31.6098 37.1059 32.9283 36.4348L37.7482 33.9818C39.2156 33.235 39.7665 31.4171 38.9605 29.9814C38.2147 28.6528 36.5672 28.1289 35.191 28.7827Z" fill="#5311B9" stroke="#5311B9"/>
    <path d="M18.7649 37.626L3.39458 45.3112C1.939 46.039 0.737662 47.4128 1.21866 48.9675C1.61029 50.2333 2.89893 51.0661 4.19616 51.3361C11.2641 52.8072 34.4219 57.6554 34.8918 58.1252C35.356 58.5895 35.0431 78.8715 34.9287 85.4694C34.9056 86.8044 35.2041 88.268 36.3422 88.9661C36.6158 89.1339 36.897 89.2459 37.1996 89.3096C38.559 89.5956 39.7909 88.5951 40.652 87.505C44.8658 82.1704 57.7221 65.981 58.1855 66.4444C58.662 66.9208 81.6467 75.9913 88.1187 78.5397C89.2244 78.9751 90.4693 79.1799 91.5287 78.6417C91.7814 78.5133 92.0006 78.3672 92.1984 78.1953C92.9589 77.535 93.1302 76.4542 93.1378 75.447L93.6721 4.92053C93.6778 4.16243 93.585 3.38194 93.1714 2.74661C92.9851 2.4605 92.78 2.22667 92.5466 2.028C91.3556 1.01403 89.574 1.39904 88.1819 2.1121L47.8383 22.7759C45.995 23.72 44.1415 25.8784 45.4331 27.4972C45.4764 27.5515 45.5222 27.6038 45.5705 27.6543C46.6212 28.7522 48.3942 28.3648 49.7593 27.697C56.3125 24.4912 75.8403 14.9582 75.3785 15.42L75.3773 15.4212C74.7701 16.0284 38.2186 52.5791 37.1102 52.5791C36.001 52.5791 13.2618 47.0329 12.1526 47.0329C11.3775 47.0329 17.1021 44.0539 20.621 42.2593C22.254 41.4264 23.8341 39.5687 22.9279 37.9752C22.1366 36.5836 20.1967 36.9101 18.7649 37.626Z" fill="#5311B9" stroke="#5311B9"/>
    <path d="M87.58 71.9906C88.1347 72.5452 60.9586 62.0075 61.5132 61.4529C62.0678 60.8983 88.1347 14.3107 88.1347 15.42C88.1347 16.5292 87.0254 71.4359 87.58 71.9906Z" fill="#9C3FF2" stroke="#9C3FF2"/>
    <path d="M77.0424 22.0753C65.5804 33.3525 42.2127 56.2395 40.4379 57.5706V78.6459L55.9671 59.7891L77.0424 22.0753Z" fill="#4200A8"/>
</svg>
