<svg width="379" height="100" viewBox="0 0 379 100" fill="none" xmlns="http://www.w3.org/2000/svg">
   <path d="M43.7656 94.9629V85.1733V71.7271C43.7656 68.8953 41.7857 66.4491 39.0162 65.8589L12.4006 60.1867C10.9623 59.8802 9.93413 58.6098 9.93413 57.1392C9.93413 55.9645 10.5947 54.8897 11.6427 54.3592L97.101 11.0959C98.1152 10.5825 99.4816 10.4127 100.51 10.8962C101.677 11.4445 102 12.6915 102 13.9806V83.5616C102 84.6173 101.756 85.6775 101.158 86.5473C101.007 86.7662 100.855 86.967 100.694 87.1519C99.6585 88.3387 97.8776 88.146 96.4368 87.51C89.2936 84.3571 67.4321 74.8175 66.5047 75.7448C65.5905 76.6591 53.7496 91.5142 49.6153 96.7081C48.6999 97.8582 47.3651 98.9118 45.9372 98.5627C45.3451 98.4179 44.8544 98.0704 44.3936 97.4054C43.9047 96.6997 43.7656 95.8213 43.7656 94.9629Z" fill="#9C3FF2" stroke="#9C3FF2"/>
   <path d="M35.191 29.2093L30.3059 31.5297C28.6439 32.3191 28.0917 34.4141 29.1486 35.9202C29.9985 37.1312 31.6098 37.5325 32.9283 36.8614L37.7482 34.4084C39.2156 33.6616 39.7665 31.8437 38.9605 30.408C38.2146 29.0794 36.5672 28.5555 35.191 29.2093Z" fill="#5311B9" stroke="#5311B9"/>
   <path d="M18.7649 38.0526L3.39458 45.7378C1.939 46.4656 0.737662 47.8394 1.21866 49.3941C1.61029 50.6599 2.89893 51.4927 4.19616 51.7627C11.2641 53.2338 34.4219 58.082 34.8918 58.5518C35.356 59.0161 35.0431 79.2981 34.9287 85.896C34.9056 87.231 35.2041 88.6946 36.3422 89.3927C36.6158 89.5605 36.897 89.6725 37.1996 89.7362C38.559 90.0222 39.7909 89.0217 40.652 87.9316C44.8658 82.597 57.7221 66.4076 58.1855 66.871C58.662 67.3474 81.6467 76.418 88.1187 78.9663C89.2244 79.4017 90.4693 79.6065 91.5287 79.0683C91.7814 78.9399 92.0006 78.7938 92.1984 78.6219C92.9589 77.9616 93.1302 76.8808 93.1378 75.8736L93.6721 5.34714C93.6778 4.58903 93.585 3.80855 93.1714 3.17321C92.9851 2.8871 92.78 2.65328 92.5466 2.4546C91.3556 1.44063 89.574 1.82565 88.1819 2.5387L47.8383 23.2025C45.995 24.1466 44.1415 26.305 45.4331 27.9238C45.4764 27.9781 45.5222 28.0304 45.5705 28.0809C46.6212 29.1788 48.3942 28.7914 49.7593 28.1236C56.3125 24.9178 75.8403 15.3848 75.3785 15.8466L75.3773 15.8478C74.7701 16.455 38.2186 53.0057 37.1102 53.0057C36.001 53.0057 13.2618 47.4595 12.1526 47.4595C11.3775 47.4595 17.1021 44.4805 20.621 42.6859C22.254 41.853 23.8341 39.9953 22.9279 38.4018C22.1366 37.0102 20.1967 37.3367 18.7649 38.0526Z" fill="#5311B9" stroke="#5311B9"/>
   <path d="M87.58 72.4172C88.1347 72.9718 60.9586 62.4341 61.5132 61.8795C62.0678 61.3249 88.1347 14.7373 88.1347 15.8466C88.1347 16.9558 87.0254 71.8625 87.58 72.4172Z" fill="#9C3FF2" stroke="#9C3FF2"/>
   <path d="M77.0424 22.5019C65.5804 33.7791 42.2126 56.6661 40.4379 57.9972V79.0725L55.9671 60.2157L77.0424 22.5019Z" fill="#4200A8"/>
   <path d="M119.121 38.856H138.577V92.872C137.809 93.128 136.571 93.3413 134.865 93.512C133.158 93.768 131.409 93.896 129.617 93.896C125.777 93.896 123.046 93.2133 121.425 91.848C119.889 90.4827 119.121 88.0933 119.121 84.68V38.856ZM138.577 63.432H119.121V15.176C119.974 15.0053 121.254 14.792 122.961 14.536C124.753 14.28 126.459 14.152 128.081 14.152C131.835 14.152 134.523 14.792 136.145 16.072C137.766 17.352 138.577 19.784 138.577 23.368V63.432ZM166.865 38.856H186.449V92.872C185.595 93.128 184.315 93.3413 182.609 93.512C180.902 93.768 179.153 93.896 177.361 93.896C173.521 93.896 170.79 93.2133 169.169 91.848C167.633 90.4827 166.865 88.0933 166.865 84.68V38.856ZM186.449 63.432H166.865V15.176C167.803 15.0053 169.126 14.792 170.833 14.536C172.539 14.28 174.246 14.152 175.953 14.152C179.622 14.152 182.267 14.8347 183.889 16.2C185.595 17.48 186.449 19.912 186.449 23.496V63.432ZM178.001 61.768H127.953V46.28H178.001V61.768ZM197.836 13.896C197.836 10.9947 198.818 8.56267 200.78 6.6C202.828 4.63733 205.388 3.656 208.46 3.656C211.618 3.656 214.178 4.63733 216.14 6.6C218.103 8.56267 219.084 10.9947 219.084 13.896C219.084 16.712 218.103 19.144 216.14 21.192C214.178 23.24 211.618 24.264 208.46 24.264C205.388 24.264 202.828 23.24 200.78 21.192C198.818 19.144 197.836 16.712 197.836 13.896ZM198.988 59.208H217.932V92.872C217.164 93.128 216.012 93.3413 214.476 93.512C212.94 93.768 211.276 93.896 209.484 93.896C205.815 93.896 203.127 93.256 201.42 91.976C199.799 90.696 198.988 88.392 198.988 85.064V59.208ZM217.932 69.064H198.988V32.328C199.756 32.072 200.908 31.816 202.444 31.56C204.066 31.304 205.772 31.176 207.564 31.176C211.234 31.176 213.879 31.816 215.5 33.096C217.122 34.2907 217.932 36.6373 217.932 40.136V69.064ZM256.264 68.424L242.568 59.72L271.496 30.536C275.336 30.6213 278.408 31.5173 280.712 33.224C283.101 34.9307 284.296 37.064 284.296 39.624C284.296 41.8427 283.528 43.848 281.992 45.64C280.456 47.3467 278.109 49.5653 274.952 52.296L256.264 68.424ZM243.336 62.408L258.44 55.752L286.728 83.144C286.386 86.5573 285.362 89.2453 283.656 91.208C281.949 93.0853 279.517 94.024 276.36 94.024C274.056 94.024 271.922 93.4693 269.96 92.36C268.082 91.1653 266.077 89.2453 263.944 86.6L243.336 62.408ZM229.128 59.08L248.072 59.464V92.872C247.218 93.128 246.024 93.3413 244.488 93.512C242.952 93.768 241.288 93.896 239.496 93.896C235.912 93.896 233.266 93.256 231.56 91.976C229.938 90.696 229.128 88.392 229.128 85.064V59.08ZM248.072 69.32L229.128 68.936V9.672C229.896 9.416 231.048 9.16 232.584 8.904C234.12 8.648 235.784 8.52 237.576 8.52C241.245 8.52 243.89 9.16 245.512 10.44C247.218 11.72 248.072 14.0667 248.072 17.48V69.32ZM299.848 71.24L299.08 58.44L330.825 53.448C330.654 51.0587 329.63 48.84 327.753 46.792C325.875 44.744 323.102 43.72 319.432 43.72C315.593 43.72 312.393 45.0427 309.833 47.688C307.273 50.248 305.907 53.9173 305.736 58.696L306.376 67.528C307.144 72.2213 309.15 75.592 312.392 77.64C315.635 79.6027 319.475 80.584 323.913 80.584C327.497 80.584 330.867 80.072 334.025 79.048C337.182 78.024 339.742 76.9573 341.705 75.848C342.985 76.616 344.009 77.6827 344.777 79.048C345.63 80.4133 346.057 81.864 346.057 83.4C346.057 85.96 345.033 88.0933 342.985 89.8C341.022 91.5067 338.249 92.7867 334.665 93.64C331.166 94.4933 327.155 94.92 322.632 94.92C316.062 94.92 310.131 93.6827 304.84 91.208C299.635 88.7333 295.539 85.0213 292.552 80.072C289.566 75.1227 288.072 68.936 288.072 61.512C288.072 56.0507 288.926 51.3147 290.632 47.304C292.424 43.2933 294.771 40.008 297.672 37.448C300.659 34.8027 303.987 32.84 307.656 31.56C311.411 30.28 315.294 29.64 319.305 29.64C325.193 29.64 330.313 30.8347 334.665 33.224C339.102 35.528 342.558 38.6853 345.033 42.696C347.507 46.7067 348.744 51.3573 348.744 56.648C348.744 59.2933 348.019 61.2987 346.569 62.664C345.118 64.0293 343.113 64.8827 340.553 65.224L299.848 71.24Z" fill="url(#paint0_linear_5_5)"/>
   <defs>
      <linearGradient id="paint0_linear_5_5" x1="128.869" y1="34" x2="336.745" y2="82.9084" gradientUnits="userSpaceOnUse">
         <stop offset="0.282229" stop-color="#5311B9"/>
         <stop offset="1" stop-color="#9C3FF2"/>
      </linearGradient>
   </defs>
</svg>
